#!OML:ASF \\sashay\E\basketball\basketball\Project 1\Capture day 1\Session 1\Subject.ASF
:FULLY-SPECIFIED
:DEGREES
150
root -10.0917 14.7227 4.88459 337.15 64.8523 -34.4469
lowerback 17.3321 0.980687 -2.06987
upperback 9.72618 1.43531 -2.10012
thorax 0.6944 0.885197 -1.27141
lowerneck -5.29524 11.9634 -10.9725
upperneck -13.5598 17.016 1.92263
head -4.36132 9.06444 1.73768
rclavicle 1.43125e-014 -9.54166e-015
rhumerus -43.3003 26.1727 -96.3888
rradius 112.212
rwrist -28.8341
rhand -26.2547 47.6251
rfingers 7.12502
rthumb 0.299747 17.6456
lclavicle 1.43125e-014 -9.54166e-015
lhumerus -14.0245 -56.9763 78.7014
lradius 108.196
lwrist 43.0069
lhand -36.1987 37.5872
lfingers 7.12502
lthumb -9.30158 67.362
rfemur 22.0122 -18.7529 17.3849
rtibia 9.10556
rfoot -11.5897 -15.7141
rtoes -27.9395
lfemur -59.2554 37.7633 -20.5839
ltibia 63.9667
lfoot -21.6406 16.565
ltoes 1.48956
151
root -9.96854 14.7989 4.92185 337.319 64.8207 -34.5979
lowerback 16.7096 1.67396 -2.60663
upperback 9.17413 2.23061 -2.09022
thorax 0.414043 1.24799 -1.07808
lowerneck -4.90572 11.8571 -10.9442
upperneck -13.5757 16.8521 2.15081
head -4.43263 8.96626 1.78229
rclavicle -3.49861e-014 -6.67916e-014
rhumerus -44.754 25.7641 -96.9059
rradius 112.161
rwrist -28.6361
rhand -26.1144 48.3435
rfingers 7.12502
rthumb 0.43528 18.3642
lclavicle -3.49861e-014 -6.67916e-014
lhumerus -16.1114 -57.5111 80.3555
lradius 108.371
lwrist 43.2418
lhand -36.9396 36.505
lfingers 7.12502
lthumb -10.0163 66.2466
rfemur 21.6029 -17.3631 18.039
rtibia 9.00653
rfoot -5.91294 -18.9914
rtoes -41.2073
lfemur -58.5195 38.1849 -20.5173
ltibia 63.0615
lfoot -21.4435 16.4034
ltoes -0.148216
152
root -9.83972 14.8693 4.93447 336.809 65.4938 -35.365
lowerback 15.8751 1.98841 -2.48915
upperback 9.08974 2.68393 -2.34373
thorax 0.776226 1.48167 -1.4487
lowerneck -5.26334 11.5874 -10.7289
upperneck -12.946 16.5584 2.61164
head -4.17838 8.78692 1.95445
rclavicle 4.45278e-014 -6.67916e-014
rhumerus -45.142 25.0568 -97.2193
rradius 111.892
rwrist -28.4742
rhand -26.2379 49.0049
rfingers 7.12502
rthumb 0.31593 19.0254
lclavicle 4.45278e-014 -6.67916e-014
lhumerus -16.7068 -58.1511 80.5982
lradius 108.436
lwrist 43.4856
lhand -35.93 37.8496
lfingers 7.12502
lthumb -9.04228 67.6358
rfemur 20.9905 -16.6481 18.4134
rtibia 9.7486
rfoot 0.158599 -20.4156
rtoes -48.4432
lfemur -57.6591 37.6189 -20.5107
ltibia 62.1173
lfoot -21.4597 16.2754
ltoes -0.688677
153
root -9.70828 14.9437 4.93693 335.912 66.4865 -36.4545
lowerback 15.3594 2.13774 -2.41658
upperback 8.96202 2.90247 -2.511
thorax 0.923806 1.59624 -1.67656
lowerneck -5.25206 11.4761 -11.0366
upperneck -13.4462 16.5116 3.03627
head -4.39117 8.78441 2.10236
rclavicle 1.43125e-014 3.65764e-014
rhumerus -45.595 24.7275 -97.3495
rradius 112.012
rwrist -28.7571
rhand -26.3896 49.3363
rfingers 7.12502
rthumb 0.169458 19.3566
lclavicle 1.43125e-014 3.65764e-014
lhumerus -17.3535 -58.3035 81.01
lradius 108.367
lwrist 42.9132
lhand -35.4182 37.3396
lfingers 7.12502
lthumb -8.54838 67.1466
rfemur 20.1602 -16.2284 18.6075
rtibia 11.2266
rfoot 3.51268 -20.717
rtoes -49.1479
lfemur -56.6832 36.6435 -20.5259
ltibia 61.1616
lfoot -21.5948 16.1545
ltoes -1.0017
154
root -9.58019 15.0164 4.93355 334.679 67.6337 -37.8891
lowerback 14.9991 2.18724 -2.57433
upperback 8.72956 2.94416 -2.41471
thorax 0.852352 1.60434 -1.48276
lowerneck -5.03221 11.5596 -11.1112
upperneck -13.7322 16.5804 2.74449
head -4.50329 8.83618 1.9971
rclavicle 0 -3.33958e-014
rhumerus -46.1914 24.8419 -97.0803
rradius 112.078
rwrist -28.793
rhand -26.1768 49.4702
rfingers 7.12502
rthumb 0.374999 19.4908
lclavicle 0 -3.33958e-014
lhumerus -18.8569 -57.8903 82.5181
lradius 108.303
lwrist 42.3857
lhand -33.9394 38.3139
lfingers 7.12502
lthumb -7.12107 68.1741
rfemur 19.1089 -16.1685 18.7206
rtibia 13.263
rfoot 6.51339 -20.3575
rtoes -49.4544
lfemur -55.7493 35.4757 -20.575
ltibia 60.1849
lfoot -21.6471 16.0995
ltoes -1.62118
155
root -9.45618 15.0807 4.92365 332.813 68.7748 -39.9009
lowerback 14.7427 2.17711 -2.56686
upperback 8.56598 2.93122 -2.26477
thorax 0.804008 1.59187 -1.32088
lowerneck -4.83965 11.5384 -11.1834
upperneck -13.78 16.5258 2.697
head -4.54726 8.81129 1.98116
rclavicle 3.18055e-014 -2.70347e-014
rhumerus -46.4863 25.0719 -96.6873
rradius 111.955
rwrist -28.8903
rhand -26.2998 49.5988
rfingers 7.12502
rthumb 0.256161 19.6192
lclavicle 3.18055e-014 -2.70347e-014
lhumerus -20.535 -57.6879 84.3384
lradius 108.202
lwrist 42.3596
lhand -35.4563 35.2472
lfingers 7.12502
lthumb -8.5851 65.0526
rfemur 17.8313 -16.1813 18.9905
rtibia 15.7396
rfoot 10.6051 -18.9986
rtoes -51.3625
lfemur -54.7478 34.1653 -20.411
ltibia 59.2172
lfoot -21.686 15.9917
ltoes -1.65705
